<!DOCTYPE svg PUBLIC "-//W3C//DTD SVG 20010904//EN" "http://www.w3.org/TR/2001/REC-SVG-20010904/DTD/svg10.dtd">
<svg version="1.0" xmlns="http://www.w3.org/2000/svg" width="1600px" height="1302px" viewBox="0 0 16000 13020" preserveAspectRatio="xMidYMid meet">
<g id="layer101" fill="#640012" stroke="none">
 <path d="M7170 13005 c-96 -14 -261 -53 -272 -64 -4 -3 -3 -29 1 -56 5 -28 15 -80 22 -117 6 -38 16 -68 20 -68 5 0 28 6 51 14 70 24 166 43 281 57 180 21 350 -11 432 -83 71 -63 122 -198 113 -305 l-3 -41 -40 19 c-63 31 -182 59 -275 66 -81 5 -146 -4 -277 -36 -71 -18 -174 -83 -234 -147 -41 -46 -109 -149 -109 -167 0 -7 -4 -17 -9 -22 -19 -20 -49 -135 -62 -238 -33 -276 59 -549 236 -695 145 -121 274 -161 516 -162 163 0 196 4 402 47 l127 27 0 717 c0 669 -1 724 -19 813 -26 129 -61 197 -141 276 -60 61 -155 120 -191 120 -8 0 -19 4 -25 8 -10 10 -90 28 -184 42 -86 13 -254 11 -360 -5z m430 -831 c45 -8 105 -26 133 -39 96 -45 87 2 87 -473 0 -263 -4 -423 -10 -427 -19 -12 -187 -35 -255 -34 -192 0 -332 81 -404 234 -39 82 -51 148 -51 273 0 169 30 264 111 356 51 58 108 91 184 110 79 19 107 19 205 0z"/>
 <path d="M9835 12501 c-135 -32 -211 -64 -320 -136 -79 -53 -194 -181 -244 -272 -45 -82 -96 -224 -112 -308 -32 -168 -34 -414 -4 -560 17 -81 68 -232 96 -281 10 -19 28 -51 40 -71 89 -158 275 -307 464 -370 130 -44 156 -48 340 -48 185 1 256 10 390 53 64 21 175 73 175 82 0 10 -79 233 -85 239 -3 3 -9 1 -13 -4 -29 -41 -333 -124 -452 -125 -52 0 -179 23 -237 43 -149 51 -273 166 -346 318 -47 99 -66 168 -82 309 -18 153 -3 323 42 460 18 56 71 167 92 193 98 119 148 157 271 204 179 70 435 56 663 -36 90 -36 97 -37 97 -13 0 9 14 55 30 102 40 114 39 121 -12 144 -152 66 -272 87 -513 92 -170 3 -212 1 -280 -15z"/>
 <path d="M2202 12494 c-182 -40 -318 -161 -377 -338 -41 -125 -45 -182 -45 -683 l0 -483 140 0 140 0 0 458 c0 465 3 518 41 622 61 171 210 225 509 187 l95 -13 3 -627 2 -627 140 0 140 0 0 725 0 725 -27 5 c-16 4 -46 10 -68 15 -64 14 -155 30 -230 40 -103 14 -388 11 -463 -6z"/>
 <path d="M12865 12495 c-152 -33 -257 -96 -315 -190 -76 -122 -85 -364 -19 -487 44 -83 150 -162 274 -207 96 -34 354 -53 435 -32 19 5 59 13 88 16 l53 7 -7 -88 c-12 -159 -55 -236 -161 -289 -56 -29 -63 -30 -193 -29 -127 1 -246 18 -315 44 -14 5 -28 10 -30 10 -5 0 -14 -44 -28 -142 -14 -96 -17 -89 48 -109 100 -31 190 -42 350 -43 185 -1 237 7 340 54 88 40 158 108 200 193 61 126 65 170 65 745 0 281 -3 512 -7 512 -5 0 -37 5 -73 10 -256 40 -584 51 -705 25z m499 -231 c14 -5 16 -34 16 -219 0 -130 -4 -216 -10 -220 -39 -24 -261 -34 -372 -16 -168 28 -260 138 -230 278 22 106 99 167 237 187 41 6 339 -2 359 -10z"/>
 <path d="M620 11615 l0 -865 -310 0 -310 0 0 -125 0 -125 765 0 765 0 0 125 0 125 -310 0 -310 0 0 865 0 865 -145 0 -145 0 0 -865z"/>
 <path d="M3430 11766 l0 -714 28 -10 c46 -19 182 -52 272 -67 151 -26 442 -14 533 21 23 8 21 29 -19 223 -4 19 -9 22 -32 17 -15 -3 -58 -12 -97 -21 -89 -19 -208 -19 -308 0 -44 8 -83 18 -88 21 -5 3 -9 268 -9 625 l0 619 -140 0 -140 0 0 -714z"/>
 <path d="M4530 11735 l0 -745 140 0 140 0 0 745 0 745 -140 0 -140 0 0 -745z"/>
 <path d="M5260 11755 l0 -725 28 -5 c15 -4 45 -10 67 -15 45 -10 127 -24 226 -40 96 -15 392 -12 459 4 239 59 357 187 406 441 11 53 14 188 14 568 l0 497 -134 0 -134 0 -5 -482 c-4 -455 -6 -487 -26 -556 -32 -109 -81 -177 -146 -202 -56 -22 -140 -39 -194 -40 -51 0 -208 15 -258 26 l-23 4 0 625 0 625 -140 0 -140 0 0 -725z"/>
 <path d="M10960 11392 l0 -1088 78 -13 c42 -7 96 -16 119 -22 92 -20 83 -59 83 367 0 353 1 375 18 370 186 -58 419 -63 567 -11 156 54 262 173 316 356 21 71 22 94 26 602 l4 527 -135 0 -136 0 0 -381 c0 -426 -11 -590 -45 -692 -42 -124 -102 -172 -243 -197 -77 -14 -200 -4 -317 25 l-50 12 -3 617 -2 616 -140 0 -140 0 0 -1088z"/>
 <path d="M14080 11735 l0 -745 140 0 140 0 0 745 0 745 -140 0 -140 0 0 -745z"/>
 <path d="M14800 11755 l0 -725 28 -5 c15 -4 45 -10 67 -15 45 -10 127 -24 226 -40 97 -15 393 -12 459 5 135 34 204 70 273 143 49 53 75 98 102 177 43 124 45 159 45 682 l0 503 -135 0 -135 0 0 -392 c-1 -616 -15 -712 -117 -810 -45 -43 -155 -77 -252 -78 -51 0 -208 15 -258 26 l-23 4 0 625 0 625 -140 0 -140 0 0 -725z"/>
 <path d="M4605 10723 c-92 -26 -141 -148 -99 -249 39 -94 151 -130 245 -81 65 35 89 76 89 154 0 111 -54 172 -157 178 -32 2 -67 1 -78 -2z"/>
 <path d="M14155 10723 c-34 -8 -81 -50 -99 -86 -31 -66 -19 -161 26 -208 76 -79 191 -78 267 1 34 37 47 94 36 166 -14 97 -118 154 -230 127z"/>
 <path d="M7999 9800 c-14 -10 -54 -36 -90 -56 -104 -59 -119 -68 -219 -129 -52 -32 -114 -68 -136 -80 -23 -13 -66 -38 -95 -57 -30 -19 -97 -61 -149 -93 -52 -32 -120 -74 -150 -93 -30 -20 -79 -50 -108 -69 -89 -56 -167 -107 -172 -114 -3 -3 -15 -11 -27 -17 -19 -10 -303 -204 -328 -224 -5 -5 -55 -40 -110 -79 -83 -60 -171 -124 -220 -162 -88 -67 -187 -145 -211 -166 -17 -14 -40 -33 -50 -41 -25 -19 -136 -112 -150 -125 -6 -5 -61 -57 -123 -114 -61 -57 -110 -108 -109 -112 4 -11 239 -249 246 -249 3 0 53 47 111 104 58 58 125 120 148 138 24 18 118 94 210 169 93 74 204 162 248 194 44 33 85 63 90 67 52 39 116 85 200 143 55 38 105 73 110 77 50 40 641 416 789 504 28 16 70 41 95 57 25 15 64 37 86 48 22 12 51 29 65 39 52 36 101 60 126 60 35 0 54 -10 319 -170 66 -40 170 -103 230 -139 61 -36 112 -69 113 -73 2 -5 10 -8 17 -8 7 0 15 -4 17 -8 2 -4 26 -21 53 -37 99 -57 472 -307 620 -415 134 -98 281 -206 295 -217 8 -6 34 -27 57 -45 22 -18 67 -53 98 -78 32 -25 79 -64 106 -87 27 -23 75 -61 106 -85 104 -77 385 -366 493 -508 19 -25 41 -51 48 -59 23 -24 222 -328 222 -339 0 -6 4 -12 8 -14 15 -6 140 -263 192 -393 48 -121 110 -299 140 -405 7 -25 16 -56 20 -70 9 -27 31 -122 50 -215 6 -33 15 -78 20 -100 18 -85 33 -185 60 -395 15 -124 30 -425 40 -830 6 -195 14 -411 19 -480 16 -198 30 -349 40 -435 6 -44 15 -118 21 -165 5 -47 15 -110 21 -140 5 -30 15 -80 20 -110 11 -58 15 -77 50 -230 19 -85 63 -255 90 -350 30 -104 32 -128 13 -164 -11 -19 -56 -73 -101 -120 -45 -48 -95 -103 -110 -124 -15 -20 -30 -39 -33 -42 -28 -28 -100 -155 -100 -177 0 -8 8 -23 18 -32 9 -9 60 -63 112 -121 52 -58 100 -108 105 -112 15 -11 25 -9 25 5 0 25 84 177 140 252 25 33 151 157 219 215 176 150 178 155 138 261 -14 35 -42 118 -62 184 -20 66 -40 131 -45 145 -44 136 -115 466 -145 675 -51 347 -68 550 -85 1010 -27 756 -41 962 -81 1225 -25 164 -68 370 -106 500 -14 47 -28 99 -33 115 -13 52 -91 280 -99 290 -4 6 -18 37 -31 70 -28 73 -155 336 -205 424 -34 61 -173 280 -185 291 -3 3 -21 28 -40 56 -148 215 -496 583 -699 739 -14 10 -28 22 -31 25 -3 4 -52 44 -110 89 -58 45 -112 87 -120 94 -22 17 -206 154 -265 198 -91 66 -278 195 -385 265 -58 37 -107 71 -110 74 -9 11 -117 79 -143 91 -15 7 -27 15 -27 19 0 6 -64 45 -121 75 -10 5 -19 13 -19 17 0 5 -5 8 -11 8 -6 0 -29 13 -52 29 -62 42 -381 234 -536 323 -19 11 -50 30 -70 44 -20 13 -39 24 -43 24 -4 0 -29 14 -55 30 -57 37 -132 41 -174 10z"/>
 <path d="M7835 8624 c-104 -64 -230 -142 -280 -174 -49 -32 -102 -64 -117 -71 -16 -7 -28 -15 -28 -19 0 -3 -19 -17 -42 -30 -24 -13 -45 -26 -48 -29 -3 -3 -32 -24 -65 -45 -33 -21 -96 -65 -140 -97 -44 -32 -141 -101 -215 -153 -74 -52 -139 -99 -145 -103 -5 -5 -54 -41 -107 -80 -53 -40 -99 -77 -102 -82 -3 -5 15 -19 41 -32 27 -12 62 -32 78 -44 17 -12 48 -34 69 -49 122 -82 313 -262 443 -417 124 -148 188 -247 223 -347 62 -175 66 -302 13 -474 l-8 -26 -51 46 c-28 26 -82 75 -120 110 -101 90 -177 191 -199 262 -20 65 -131 189 -401 449 -94 91 -132 120 -190 147 -40 19 -96 52 -125 74 -30 22 -58 40 -64 40 -12 0 -65 -52 -65 -63 0 -4 30 -38 68 -75 68 -68 122 -134 122 -149 0 -4 9 -19 20 -33 34 -44 24 -142 -23 -225 -48 -85 -105 -119 -203 -120 -92 0 -144 26 -244 123 -41 39 -76 72 -77 72 -1 0 -15 -19 -31 -43 -27 -38 -29 -45 -16 -62 8 -11 35 -58 61 -105 53 -98 104 -160 298 -356 167 -169 214 -204 376 -285 32 -16 366 -337 357 -343 -9 -6 -113 -27 -190 -37 -89 -12 -184 -4 -283 24 -59 16 -205 92 -240 124 -17 16 -53 46 -80 67 -53 42 -357 343 -415 411 -19 23 -50 60 -69 83 -18 23 -37 42 -41 42 -9 0 -20 -29 -48 -120 -11 -36 -32 -96 -46 -135 -39 -109 -73 -233 -85 -315 -7 -41 -19 -109 -28 -150 -43 -205 -75 -571 -93 -1090 -10 -272 -16 -363 -40 -600 -24 -254 -42 -398 -60 -485 -44 -220 -53 -259 -70 -335 -5 -19 -15 -66 -24 -105 -37 -159 -40 -217 -14 -268 5 -10 33 -46 62 -80 129 -153 222 -312 282 -487 19 -52 41 -100 50 -107 9 -6 39 -17 68 -24 82 -18 116 -26 206 -49 93 -23 108 -27 255 -63 55 -14 161 -45 235 -69 74 -25 160 -53 190 -62 50 -16 252 -91 325 -121 250 -105 469 -209 628 -299 54 -31 100 -56 102 -56 2 0 52 -30 112 -66 59 -37 133 -82 163 -100 30 -18 60 -37 66 -42 6 -5 44 -31 85 -58 41 -27 82 -56 92 -65 32 -29 93 -44 125 -30 32 15 161 99 180 118 7 7 17 13 22 13 5 0 15 6 22 13 7 7 36 26 63 42 28 16 52 32 55 35 3 3 14 10 25 17 39 23 130 77 150 89 100 56 128 72 180 101 89 50 391 196 460 223 33 13 65 26 70 30 9 7 251 100 360 140 87 31 389 128 423 135 37 8 43 25 8 25 -30 0 -114 35 -193 80 -120 68 -385 309 -563 510 -41 47 -78 87 -81 90 -3 3 -26 33 -51 67 -73 100 -121 234 -132 373 -9 107 17 322 39 320 19 -1 274 -260 314 -319 23 -33 41 -64 41 -69 0 -20 59 -114 105 -168 28 -31 56 -67 64 -78 8 -12 17 -23 21 -26 3 -3 32 -41 65 -84 67 -89 174 -202 220 -233 29 -20 77 -47 181 -105 32 -17 102 -80 183 -163 l131 -136 43 12 c23 6 48 13 55 15 20 6 2 27 -150 184 -176 181 -186 193 -214 256 -45 101 -24 205 55 282 79 77 154 95 246 62 54 -20 76 -38 212 -176 84 -85 157 -154 162 -154 10 0 71 82 71 96 0 3 -53 62 -119 129 -103 107 -124 135 -164 217 -55 112 -117 187 -323 388 -168 164 -191 183 -287 234 -106 56 -166 102 -242 189 -38 43 -92 103 -119 133 -27 30 -47 56 -45 57 7 6 113 27 190 37 86 12 184 2 289 -32 67 -20 164 -64 190 -85 8 -7 42 -32 75 -57 59 -43 348 -323 456 -441 78 -85 135 -163 159 -218 12 -26 23 -47 27 -47 7 0 1 38 -36 220 -59 297 -75 413 -102 740 -16 201 -38 645 -39 773 0 65 -4 162 -10 215 -5 53 -15 144 -20 202 -12 116 -26 223 -41 315 -48 296 -49 301 -96 450 -88 277 -125 381 -138 391 -12 9 -59 95 -160 294 -13 25 -33 57 -46 71 -13 15 -55 73 -93 129 -39 56 -85 119 -103 139 -18 20 -33 40 -33 45 0 4 -71 78 -157 164 -181 179 -264 255 -348 317 -22 17 -42 32 -45 36 -7 7 -197 148 -245 181 -86 59 -136 94 -270 192 -116 84 -627 415 -730 472 -22 12 -78 45 -125 73 -132 79 -139 78 -375 -65z m-985 -1898 c47 -21 275 -246 927 -912 378 -386 357 -363 395 -437 l29 -59 -17 -78 c-19 -88 -49 -134 -118 -178 -35 -23 -52 -26 -121 -27 -70 0 -87 4 -132 29 -37 21 -216 194 -655 637 -673 679 -672 678 -672 798 0 49 5 77 21 106 74 138 207 185 343 121z m1380 -740 c101 -25 260 -102 300 -146 3 -3 37 -32 75 -64 137 -117 446 -437 511 -531 34 -49 81 -156 98 -220 44 -175 32 -435 -23 -464 -13 -7 -29 3 -77 52 -34 34 -81 80 -105 103 -85 79 -143 153 -186 235 -69 133 -96 167 -298 367 -166 165 -293 272 -323 272 -46 0 -194 129 -317 274 -77 91 -80 97 -64 107 8 5 25 9 39 10 14 0 34 4 45 9 32 14 264 11 325 -4z m-883 -599 c34 -34 78 -78 99 -97 88 -79 154 -163 195 -245 60 -123 81 -150 304 -371 209 -208 258 -248 335 -277 69 -26 146 -89 283 -233 l126 -131 -32 -11 c-165 -58 -426 -30 -625 69 -72 36 -147 103 -407 363 -207 208 -237 240 -285 316 -86 135 -115 242 -114 435 0 145 20 245 48 245 7 0 40 -28 73 -63z m1281 -438 c37 -17 167 -142 646 -623 655 -658 701 -711 701 -801 0 -73 -25 -142 -69 -192 -53 -60 -101 -83 -176 -83 -116 0 -127 9 -575 460 -222 223 -420 423 -442 446 -21 22 -115 119 -209 215 -197 201 -228 249 -228 353 0 85 31 144 110 206 58 46 163 54 242 19z"/>
 <path d="M5193 7646 c-32 -37 -173 -254 -230 -356 -72 -126 -161 -310 -213 -440 -12 -30 -26 -64 -30 -75 -21 -51 -44 -115 -62 -170 -17 -53 -26 -85 -58 -200 -112 -405 -154 -749 -180 -1485 -28 -773 -41 -945 -99 -1295 -41 -247 -75 -400 -136 -620 -10 -33 -21 -73 -25 -90 -4 -16 -27 -84 -50 -150 -24 -66 -45 -144 -47 -173 -5 -49 -3 -54 29 -85 45 -42 110 -101 184 -162 79 -67 125 -113 154 -155 14 -19 31 -43 40 -52 14 -16 66 -117 105 -203 35 -77 62 -210 71 -349 8 -111 19 -130 82 -139 114 -18 328 -58 507 -96 183 -39 230 -50 275 -64 25 -8 65 -20 90 -27 25 -7 56 -16 70 -20 14 -4 52 -15 85 -24 177 -49 511 -165 647 -225 26 -12 51 -21 54 -21 6 0 39 -14 129 -55 28 -13 82 -37 120 -55 75 -34 228 -111 285 -143 19 -11 64 -36 100 -55 36 -19 77 -43 92 -54 14 -10 29 -18 32 -18 7 0 369 -235 394 -255 9 -8 55 -42 102 -77 47 -34 91 -68 98 -75 7 -7 16 -13 20 -13 4 0 21 -13 37 -28 93 -86 180 -142 218 -142 28 0 90 39 172 106 33 27 87 69 120 94 33 25 62 48 65 51 20 22 432 299 445 299 4 0 25 13 48 28 23 16 74 46 112 67 39 21 86 47 105 58 364 204 874 408 1365 547 62 17 223 58 295 74 41 9 93 21 115 26 130 30 336 70 360 70 55 1 48 17 -55 121 -56 57 -118 124 -138 147 -33 41 -39 43 -76 39 -59 -6 -153 -25 -211 -42 -27 -8 -99 -26 -160 -40 -60 -15 -121 -30 -135 -35 -14 -4 -43 -13 -65 -18 -153 -42 -401 -116 -470 -142 -27 -10 -68 -24 -90 -31 -22 -6 -116 -42 -210 -79 -512 -203 -953 -447 -1432 -794 -37 -28 -70 -53 -73 -56 -14 -17 -70 -50 -85 -50 -15 0 -139 80 -155 100 -3 3 -21 17 -40 30 -19 13 -37 27 -40 30 -3 3 -29 21 -58 39 -30 19 -59 40 -66 46 -28 29 -307 202 -486 303 -118 66 -381 198 -480 241 -30 13 -75 33 -100 44 -90 39 -106 45 -155 62 -27 9 -63 22 -80 30 -75 32 -412 147 -500 170 -27 7 -104 29 -170 48 -66 19 -169 47 -230 62 -60 14 -126 30 -145 35 -19 5 -55 13 -80 19 -44 9 -59 13 -208 47 -41 9 -82 24 -93 33 -11 9 -26 44 -35 81 -22 95 -36 144 -46 155 -4 5 -8 15 -8 23 0 23 -89 201 -139 276 -65 100 -98 140 -216 264 -91 96 -94 107 -66 202 14 48 41 148 51 190 4 19 20 80 34 135 34 136 44 180 55 250 6 33 15 87 21 120 65 359 96 710 110 1280 14 530 31 770 79 1070 32 199 30 188 62 323 18 72 85 310 107 377 59 177 171 431 249 565 11 19 37 64 57 100 21 35 62 100 93 143 l55 79 -93 96 c-52 52 -108 110 -125 128 l-32 32 -19 -22z"/>
 </g>

</svg>